# xmcd
#
# Track frame offsets:
#	150
#	26795
#	60030
#	79520
#	112960
#	147445
#	174085
#	201070
#
# Disc length: 3127 seconds
#
# Revision: 0
# Processed by: cddbd v1.5.1PL2 Copyright (c) Steve Scherf et al.
# Submitted via: EasyCDDAExtractor 8.0.2.1
#
DISCID=590c3508
DTITLE=Ozzy Osbourne - Fox Theater St  Louis 16-02-92 Disc 2
DYEAR=1992
DGENRE=Hard Rock
TTITLE0=Shot In The Dark
TTITLE1=No More Tears
TTITLE2=Miracle Man
TTITLE3=Drum Solo
TTITLE4=War Pigs
TTITLE5=Suicide Solution
TTITLE6=Paranoid
TTITLE7=Crazy Train
EXTD=
EXTT0=
EXTT1=
EXTT2=
EXTT3=
EXTT4=
EXTT5=
EXTT6=
EXTT7=
PLAYORDER=
